<svg width="48" height="48" viewBox="0 0 48 48" fill="none" xmlns="http://www.w3.org/2000/svg">
<rect width="48" height="48" fill="#E5E5E5"/>
<g id="Menu" clip-path="url(#clip0_37_94)" filter="url(#filter0_d_37_94)">
<rect width="428" height="2231" transform="translate(-16 -16)" fill="white"/>
<g id="Header">
<rect width="428" height="80" transform="translate(-16 -16)" fill="white"/>
<g id="Frame 144">
<g id="Frame 143">
<g id="menu_black_24dp 1" clip-path="url(#clip1_37_94)">
<path id="Vector" d="M14 36H50V32H14V36ZM14 26H50V22H14V26ZM14 12V16H50V12H14Z" fill="#002F52"/>
</g>
</g>
</g>
</g>
<g id="Menu_2">
<g id="Frame 20">
<rect width="80" height="80" transform="translate(-16 -16)" fill="url(#paint0_linear_37_94)"/>
<g id="menu_black_24dp 1_2" clip-path="url(#clip2_37_94)">
<path id="Menu Aberto" d="M6 36H42V32H6V36ZM6 26H42V22H6V26ZM6 12V16H42V12H6Z" fill="white"/>
</g>
</g>
</g>
</g>
<defs>
<filter id="filter0_d_37_94" x="-80" y="-80" width="572" height="2375" filterUnits="userSpaceOnUse" color-interpolation-filters="sRGB">
<feFlood flood-opacity="0" result="BackgroundImageFix"/>
<feColorMatrix in="SourceAlpha" type="matrix" values="0 0 0 0 0 0 0 0 0 0 0 0 0 0 0 0 0 0 127 0" result="hardAlpha"/>
<feMorphology radius="8" operator="dilate" in="SourceAlpha" result="effect1_dropShadow_37_94"/>
<feOffset dx="8" dy="8"/>
<feGaussianBlur stdDeviation="32"/>
<feComposite in2="hardAlpha" operator="out"/>
<feColorMatrix type="matrix" values="0 0 0 0 0 0 0 0 0 0 0 0 0 0 0 0 0 0 0.25 0"/>
<feBlend mode="normal" in2="BackgroundImageFix" result="effect1_dropShadow_37_94"/>
<feBlend mode="normal" in="SourceGraphic" in2="effect1_dropShadow_37_94" result="shape"/>
</filter>
<linearGradient id="paint0_linear_37_94" x1="33.4259" y1="-9.60003" x2="149.059" y2="5.71112" gradientUnits="userSpaceOnUse">
<stop stop-color="#002F52"/>
<stop offset="1" stop-color="#326589"/>
</linearGradient>
<clipPath id="clip0_37_94">
<rect width="428" height="2231" fill="white" transform="translate(-16 -16)"/>
</clipPath>
<clipPath id="clip1_37_94">
<rect width="48" height="48" fill="white" transform="translate(8)"/>
</clipPath>
<clipPath id="clip2_37_94">
<rect width="48" height="48" fill="white"/>
</clipPath>
</defs>
</svg>
